<?xml version="1.0" encoding="utf-8"?>
<!-- Generator: Adobe Illustrator 22.0.0, SVG Export Plug-In . SVG Version: 6.00 Build 0)  -->
<svg version="1.1" id="Layer_2" xmlns="http://www.w3.org/2000/svg" xmlns:xlink="http://www.w3.org/1999/xlink" x="0px" y="0px"
	 viewBox="0 0 1024 475" style="enable-background:new 0 0 1024 475;" xml:space="preserve">
<style type="text/css">
	.st0{fill:#FFFFFF;}
</style>
<g>
	<g>
		<path class="st0" d="M926.9,253.4h-6.4v-2.5H936v2.5h-6.4v17.3h-2.7V253.4z"/>
		<path class="st0" d="M938.7,250.9h4l6.3,15h0.1l6.2-15h4v19.8h-2.7v-16.3h-0.1l-6.7,16.3h-1.8l-6.7-16.3h-0.1v16.3h-2.7V250.9z"/>
	</g>
	<g>
		<g>
			<g>
				<path class="st0" d="M398.9,225.9H372l-12.6-31h-55.3l-12.4,31h-26.9l58.1-131.8h19.6L398.9,225.9z M312.7,173.7h37.9
					l-18.8-46.3L312.7,173.7z"/>
			</g>
		</g>
	</g>
	<g>
		<path class="st0" d="M871,193.3L871,193.3c-4.6,4.5-7.5,6.1-12.4,8.8c-4.9,2.6-10.6,3.9-17.1,3.9c-6.8,0-12.8-1.2-18.1-3.5
			c-5.3-2.4-9.8-5.7-13.4-9.7c-3.6-4-6.5-8.9-8.5-14.3c-1.9-5.4-2.9-11.3-2.9-17.5c0-6.7,1-13,3.1-18.7c2-5.6,4.9-10.6,8.7-15
			c3.8-4.2,8.4-7.6,13.5-9.9c5.2-2.4,11.1-3.6,17.6-3.6c5.2,0,10.3,1.1,15.2,3.3c4.9,2.3,8.8,5.1,12.4,8l13.6-20.8l-0.4-0.3
			c-4.3-3.7-9.2-6.7-14.5-8.9c-8.5-3.3-17.1-5-25.8-5c-10.2,0-19.6,1.7-28,5.2c-8.5,3.5-15.9,8.5-21.9,14.8
			c-6,6.3-10.8,13.8-14.2,22.5c-3.3,8.6-5.1,18.1-5.1,28.2c0,8.3,1.6,16.7,4.7,24.9c3.2,8.2,7.7,15.6,13.6,21.9
			c5.9,6.5,13.2,11.8,21.6,15.8c8.5,4,18.1,6.1,28.4,6.1c7.6,0,14.5-1,20.2-3c5.8-1.9,10.8-4.2,14.9-6.8c3.3-2.1,6.2-4.2,8.6-6.5
			L871,193.3z"/>
		<path class="st0" d="M803.1,334.5L803.1,334.5c-3.9,3.8-6.4,5.2-10.6,7.5c-4.1,2.2-9,3.4-14.6,3.4c-5.8,0-10.9-1-15.4-3
			c-4.5-2-8.3-4.8-11.4-8.2c-3.1-3.4-5.5-7.5-7.2-12.2c-1.7-4.6-2.5-9.6-2.5-14.9c0-5.7,0.9-11,2.7-15.9c1.7-4.8,4.2-9,7.4-12.7
			c3.3-3.6,7.1-6.5,11.5-8.5c4.4-2,9.4-3.1,15-3.1c4.4,0,8.8,1,12.9,2.8c4.1,1.9,7.5,4.3,10.6,6.8L813,259l-0.3-0.3
			c-3.7-3.2-7.8-5.7-12.3-7.5c-7.2-2.8-14.6-4.3-21.9-4.3c-8.7,0-16.7,1.5-23.8,4.4c-7.2,3-13.5,7.2-18.7,12.6
			c-5.1,5.3-9.2,11.7-12.1,19.1c-2.8,7.3-4.3,15.4-4.3,24c0,7.1,1.4,14.2,4,21.1c2.7,7,6.6,13.3,11.6,18.7c5,5.5,11.2,10,18.4,13.4
			c7.2,3.4,15.4,5.2,24.2,5.2c6.5,0,12.3-0.9,17.2-2.5c5-1.7,9.2-3.6,12.7-5.8c2.8-1.7,5.3-3.6,7.3-5.5L803.1,334.5z"/>
	</g>
	<g>
		<path class="st0" d="M464,149.4v22.3h27.8v29.8c-3.1,1.5-6.9,2.8-11.2,3.6c-5.1,1.1-10.7,1.6-16.4,1.6c-6.5,0-12.6-1.2-18-3.5
			c-5.5-2.4-10.3-5.7-14.3-9.8c-4.1-4.2-7.3-9.2-9.6-14.9c-2.3-5.6-3.5-11.9-3.5-18.5c0-6.5,1.1-12.6,3.2-18.3
			c2.1-5.6,5.1-10.6,8.9-14.8c3.8-4.2,8.5-7.5,13.8-10c10.1-4.6,23.8-4.8,35.4-0.9c5.3,1.8,10.2,4.4,15.6,8.5l12.3-19.9
			c-4.5-3.7-9.7-6.8-15.6-9.1c-7.7-3-17.6-4.6-29.5-4.6c-9.9,0-19.2,1.8-27.6,5.3c-8.4,3.5-15.7,8.5-21.7,14.6
			c-6,6.2-10.7,13.6-14.1,21.9c-3.4,8.4-5.1,17.5-5.1,27.2c0,9.2,1.6,18,4.7,26.3c3.1,8.4,7.8,15.8,13.8,22.1
			c6,6.3,13.4,11.4,22.1,15.1c8.7,3.7,18.7,5.6,29.7,5.6c3.8,0,8-0.3,12.5-0.8c4.4-0.5,8.8-1.2,13.2-2.3c4.3-1,8.5-2.3,12.5-3.7
			c4.1-1.5,7.8-3.2,11-5.2l1.5-1v-66.8H464z"/>
		<polygon class="st0" points="625.1,225.9 534.6,225.9 534.6,94.2 622,94.2 622,116.5 558,116.5 558,147.5 617.5,147.5 
			617.5,169.8 558,169.8 558,203.6 625.1,203.6 		"/>
		<polygon class="st0" points="757.9,225.9 731.4,225.9 666.2,129.6 666.2,225.9 642.8,225.9 642.8,94.2 670,94.2 734.5,190.4 
			734.5,94.2 757.9,94.2 		"/>
		<polygon class="st0" points="958.8,225.9 935.4,225.9 935.4,170.2 885.2,94.2 914.7,94.2 947.1,146.4 980.6,94.2 1009,94.2 
			958.8,170.2 		"/>
		<path class="st0" d="M457.9,361.8h-22.6l-10.6-26.1h-46.7l-10.5,26.1h-22.7l49-111.2h16.5L457.9,361.8z M385.2,317.7h32
			l-15.9-39.1L385.2,317.7z"/>
		<path class="st0" d="M528.1,312.4c-2.8-3.9-6.4-7.1-10.5-9.5c-4-2.2-8.4-4-13.1-5.2c-4.4-1.2-8.6-2.5-12.3-3.9
			c-3.5-1.4-6.4-3.2-8.8-5.3c-2-1.9-3-4.6-3-8.3c0-1.3,0.3-2.8,0.8-4.4c0.5-1.5,1.4-2.9,2.7-4.3c1.3-1.3,3.2-2.5,5.4-3.4
			c2.3-0.9,5.3-1.4,8.9-1.4c3.7,0,7,0.8,9.9,2.2c2.9,1.5,4.7,2.4,6.7,3.8l10.9-16.8c-3.1-2.6-6.5-4.5-10.2-5.6
			c-5.5-1.6-11.4-2.5-17.3-2.5c-6.7,0-12.6,1.1-17.4,3.2c-4.8,2.1-8.9,4.7-12,7.8c-3.2,3.1-5.5,6.7-7,10.5
			c-1.5,3.8-2.2,7.4-2.2,10.9c0,7.3,1.5,13.4,4.3,17.8c2.8,4.4,6.3,7.9,10.5,10.5c4,2.5,8.5,4.5,13.2,5.9c4.5,1.3,8.6,2.7,12.4,4.1
			c3.5,1.3,6.5,3,8.9,4.9c1.9,1.6,2.9,4,2.9,7.3c0,2.4-0.5,4.5-1.6,6.2c-1.1,1.9-2.6,3.5-4.3,4.7c-1.8,1.3-3.8,2.3-6,3
			c-6.3,1.9-12.2,1-17.9-1.6c-3.5-1.6-4.4-1.8-7.9-4.4l-1.6-1.1l-10.3,16.9c3,2.6,6.4,4.7,10.3,6.2c6.4,2.5,13.2,3.8,20.3,3.8
			c5.4,0,10.5-0.8,15.2-2.4c4.8-1.6,9-3.9,12.5-7c3.6-3,6.4-6.8,8.6-11.2c2.1-4.4,3.2-9.4,3.2-14.9
			C532.5,322.1,531,316.6,528.1,312.4z"/>
		<path class="st0" d="M564.9,361.8h-19.7V250.6h39.9c7.1,0,13.1,1,17.8,3c4.7,2,8.6,4.6,11.3,7.7c2.8,3.1,4.8,6.7,5.9,10.6
			c1.1,3.8,1.6,7.5,1.6,11c0,3.5-0.5,7.2-1.6,11c-1.1,3.9-3.1,7.5-5.9,10.6c-2.8,3.1-6.6,5.7-11.3,7.7c-4.7,2-10.7,3-17.8,3h-20.1
			V361.8z M564.9,297.2h16.1c2.6,0,5.3-0.2,7.9-0.6c2.4-0.4,4.6-1.1,6.4-2.2c1.7-1,3.1-2.3,4.1-4.1c1-1.8,1.6-4.3,1.6-7.4
			s-0.5-5.6-1.6-7.4c-1.1-1.8-2.4-3.2-4.1-4.1c-1.9-1-4-1.8-6.4-2.2c-2.6-0.4-5.2-0.6-7.9-0.6h-16.1V297.2z"/>
		<polygon class="st0" points="711.4,361.8 635.1,361.8 635.1,250.6 708.8,250.6 708.8,269.5 654.8,269.5 654.8,295.6 705,295.6 
			705,314.4 654.8,314.4 654.8,342.9 711.4,342.9 		"/>
		<polygon class="st0" points="874.9,361.8 855.2,361.8 855.2,269.5 821.1,269.5 821.1,250.6 909,250.6 909,269.5 874.9,269.5 		"/>
	</g>
	<g>
		<path class="st0" d="M234.2,337.8c0,2.3-1.8,3.7-3.8,4.6c0,0-68.7,38.5-74.4,41.8c-5.6,3.2-7.8,3.2-13.5,0s-74.6-42.3-75-42.6
			c-1.2-0.9-2-2.3-2-3.8c0-2.7,2.2-4.8,5-4.8h158.8C232,333,234.2,335.2,234.2,337.8z"/>
		<path class="st0" d="M281.8,335.2l-33.2-85.5c0,0-0.6-1.6-2.6-1.6c-8.5,0-9.9,0-13.9,0c-1.3,0-3.1-0.4-1.9,2.5
			c19.4,48.7,28.5,72.4,34.3,87c1,2.5,0.5,4.2-1.4,5.5c-1.6,1.2-81.4,51.3-106.6,66.4c-0.1,0-0.3,0.2-0.8,0.5
			c-1.1,0.6-3.4,1.6-6.1,1.6c-2.9,0-4.4-0.7-6.1-1.7c-0.3-0.1-0.5-0.3-0.8-0.4c-25.2-15.1-109.5-65.2-111.1-66.4
			c-1.9-1.4-2.5-3.1-1.4-5.5C43.4,307.2,133.7,99.4,146.2,70.4c0.7-1.7,1.8-2.7,2.9-2.8c0.1,0,0.6,0,0.7,0c1.1,0.1,2.4,1.1,3.1,2.8
			c7,16.3,39.3,88.7,66.9,155c0.7,1.8,2.1,2.2,3,2.2c6.4,0,14.3,0,15.9,0c1.3,0,0.8-1.5,0.3-2.6c-0.5-1.1-73.9-173.2-73.9-173.2
			c-2.6-6.1-8.7-10.1-15.6-10.1h-0.1c0,0-0.1,0-0.1,0c-6.8,0.1-12.9,4.1-15.4,10.1L12.9,335.2c-1.7,4-1.7,8.6,0.1,12.6
			c1.8,4,5.2,6.3,9.4,8.7l120.7,74.2c0,0,3.4,2,6.5,2c2.7,0,6.6-2,6.6-2l116.2-74.2c4.1-2.4,7.6-4.7,9.4-8.7
			C283.5,343.8,283.5,339.2,281.8,335.2z"/>
		<path class="st0" d="M233.1,309.7c0,2.7-1.8,3.9-4.5,3.9H69.8c-2.7,0-5-2.1-5-4.8c0-0.7,0.9-2.9,0.9-2.9l78.8-181.2
			c0,0,0.1-0.3,0.5-1.1c0.8-1.5,1.6-2.6,3.3-3.1c0.3-0.1,0.7-0.2,1-0.2c0,0,0.1,0,0.2,0c0,0,0.1,0,0.2,0c0.3,0,0.8,0.1,1,0.2
			c1.7,0.5,2.6,1.6,3.4,3.2c0.2,0.4,0.5,1,0.5,1s40.5,93.9,42.2,97.7c1.4,3.2,2.2,5.2-1.9,5.2c0,0-0.3,0-0.9,0c-6.2,0-40.8,0-43.1,0
			c-3,0-3.5,1.6-3.6,1.7c-1,2.3-6.5,14.9-7.1,16.3c-0.4,0.9-1.1,2.5,1.3,2.5c3.9,0,2.4,0,3.2,0c8.9,0,23.5,0,57.3,0
			c6.4,0,8.1,4.7,8.1,4.7l22.8,55.2l0.1,0.4C233.1,308.8,233.1,309.2,233.1,309.7z"/>
	</g>
</g>
</svg>
