<?xml version="1.0" encoding="utf-8"?>
<!-- Generator: Adobe Illustrator 21.1.0, SVG Export Plug-In . SVG Version: 6.00 Build 0)  -->
<svg version="1.1" id="Layer_3" xmlns="http://www.w3.org/2000/svg" xmlns:xlink="http://www.w3.org/1999/xlink" x="0px" y="0px"
	 viewBox="0 0 1024 475" style="enable-background:new 0 0 1024 475;" xml:space="preserve">
<path d="M700.1,105.5c-5.3-9.3-15.5-12.9-26-9.3c-8,2.7-11.2,8.9-11.2,21.3l0,108.1h23.6l0.5-95.1c0.1,0.1,0.1,0.2,0.2,0.3
	l46.7,83.5c4.3,7.8,11.1,12,18.6,12c2.3,0,4.8-0.4,7.2-1.3c8.7-3,11.7-8.7,11.7-22.5l0-107.1h-24v94.9L700.1,105.5z"/>
<path d="M652.1,94.8l0,22.4h-59.3c-6.3,0-7.8,1-7.8,9l0,21.4h56.5l0,22.7l-55.9,0l0.1,29.8c0.1,2.3,1,2.8,4.5,2.8l62.5,0.1l0,22.6
	l-72.9,0c-13.4,0-19.1-6.2-19.2-21.4l0-86.1c0-16.8,5.3-23,20.1-23.2L652.1,94.8z"/>
<path d="M550.2,94.8V117l-48.9,0.2c-4.6,0.1-9.8,0.7-13.1,1.9c-11.4,4-16.1,10.5-17.5,26.5c-0.9,11.2-0.7,23,0.8,35.1
	c1.7,13.7,9.4,21.1,23.1,22l26.7,0.3c1.6,0,2.7-0.3,3.4-1c0.9-0.9,1.3-2.5,1.3-4.8l0-37h23.9l-0.2,51.6c-0.2,7.8-6.8,13.7-15.3,13.7
	l-50.1-0.2c-16.5-1.6-31.1-13.9-35.8-32.6c-5.2-20.8-5.3-42.2-0.2-63.6c3.9-16.6,18.3-29.6,34.9-32.6c5.8-1.1,11.9-1.5,17.7-1.5
	L550.2,94.8z"/>
<path d="M877,225.4v-22.6l-45.5-0.1c-14.2-0.3-22.4-7.6-24.2-21.6c-1.5-11.2-1.8-23.3-0.9-36.1c1.2-17.2,8.9-26.7,23.8-27.8h44.2
	l-12.7-22.3l-40.4,0c-18.6,0.7-33,14.6-37.6,35.5c-4.3,19.5-4.4,39.6-0.1,59.9c3.5,16.7,12.6,27.7,26.8,32.6
	c4.9,1.7,10.3,2.6,16.2,2.7L877,225.4z"/>
<path d="M944.6,225.6l1.1-35.7c1.4-9.3,4.6-15.8,10.2-25.4l37-69.7l-23.7,0c-1.5,0.1-3.2,1.6-4.7,4.6L933,159.5l0,0l-31.5-60.1
	c-1.6-3-3.2-4.5-4.7-4.6l-23.7,0l37,69.7c5.7,9.6,8.8,16.1,10.2,25.4l1.1,35.7L944.6,225.6z"/>
<path d="M759,249.8l0,17.4h-45.8c-4.9,0-6,0.8-6,7l0,16.6h43.6l0,17.6l-43.1,0l0.1,23.2c0,1.8,0.8,2.2,3.4,2.2l48.2,0.1l0,17.6
	l-56.2,0c-10.3,0-14.8-4.8-14.8-16.7l0-67.1c0-13.1,4.1-17.9,15.5-18.1L759,249.8z"/>
<path d="M837.7,351.6v-17.6l-35.1-0.1c-11-0.2-17.3-5.9-18.7-16.9c-1.1-8.7-1.4-18.2-0.7-28.1c0.9-13.4,6.8-20.8,18.3-21.7h27.7
	l6-17.4l-40.6,0c-14.3,0.5-25.4,11.4-29,27.6c-3.3,15.2-3.4,30.9-0.1,46.7c2.7,13,9.7,21.5,20.7,25.4c3.8,1.3,8,2,12.5,2.1
	L837.7,351.6z"/>
<path d="M511,333.9h48.6c8.6,0,8.5-5.8,8.5-9.3c0-3.9-0.9-8-9.2-10.7l-37.6-12.6c-12.5-4.2-16.2-12.8-16.2-26.7
	c0-14.5,6.7-24.6,21.8-24.6h54.9v17.5l-50.1-0.1c-4.5,0-8,1.4-8,8.7c0,4.5,0.7,8.2,8.3,10.8l34.9,11.8c13.9,4.6,19.9,10.9,19.9,26.9
	c0,15-5.7,26.2-20.4,26.2H517L511,333.9z"/>
<path d="M594.9,265.2c0-11.7,5.8-15.4,14-15.4h47.8c20.6,0,24.4,15.4,24.4,33c0,17.6-3.8,33.3-24.4,33.3h-43.7l0,35.5h-18.1
	L594.9,265.2z M647.9,299.1c12.4,0,14.6-4.3,14.6-16c0-11.7-2.1-16-14.4-16h-28.3c-5.5,0-6.7,0.9-6.7,6.8V299L647.9,299.1z"/>
<path d="M838.9,267.3l29.1-0.1l0,84.4h18l0-84.5l29.1,0v-17.4l-70.3,0L838.9,267.3z"/>
<g>
	<ellipse cx="194.1" cy="103.3" rx="5.9" ry="5.7"/>
	<ellipse cx="288.2" cy="321" rx="5.9" ry="5.7"/>
	<ellipse cx="100" cy="321" rx="5.9" ry="5.7"/>
	<polygon points="192.3,224.9 253.2,224.9 200,102.3 188.3,102.3 95,318 100,326.7 288.2,326.7 294.1,319.1 264.4,250.8 
		181.1,250.8 	"/>
</g>
<g>
	<ellipse cx="192.9" cy="407.8" rx="5.9" ry="5.7"/>
	<ellipse cx="288.2" cy="355.5" rx="5.9" ry="5.7"/>
	<ellipse cx="100" cy="355.5" rx="5.9" ry="5.7"/>
	<polygon points="100,349.8 98,361 189.9,412.7 195.9,412.7 290.2,360.7 288.2,349.8 	"/>
</g>
<path d="M186.9,465.7 M186.9,465.7c2.3,0.9,4.8,1.3,7.3,1.3c2.6,0,5.1-0.5,7.6-1.4l143-89.9c5.2-2.8,8.9-5.7,10.9-10.5
	c2-4.7,2-10.1,0-14.8l-42.9-99.5H291l46.1,106.9l-142.6,88.2L51.1,359.7l142-336l86.7,201.2h21.8L211.6,16.3
	C208.5,9,201.2,4.4,193.1,4.4l0,0c0,0,0,0-0.1,0c-8.1,0-15.4,4.8-18.5,12l-142,336c-2,4.8-2,10.2,0.1,14.9
	c2.1,4.8,6.2,7.5,11.1,10.4L186.9,465.7"/>
<path d="M326.6,225.2l20.8,0c2-0.1,4.3-2.7,4.9-4.3l16.6-48.1h0c1.5-4.5,3.1-8.9,4.7-13.4c4.3-12.4,8.6-24.8,13-37.1l0.7-2l0.8,2
	l17.9,50.6h-38.2l-8,20.2c7.1,0,42.7,0.3,50.5,0.2c1.9,0,2.7,0.4,3.5,2.7l8.5,24.8c0.7,2.3,2,4.5,5.7,4.5l21.4,0L406,108
	c-3.2-8.9-9.6-13.5-18.9-13.5h0c-9.1,0-15.4,4.6-18.8,13.8L326.6,225.2z"/>
<path d="M412.6,351.7l16.2,0c1.6-0.1,3.3-2.1,3.8-3.3l12.9-37.5h0c1.2-3.5,2.4-7,3.6-10.5c3.3-9.6,6.7-19.3,10.1-28.9l0.6-1.6
	l0.6,1.5l13.9,39.4h-30.2l-5.5,15.9c5.6,0,33,0,39,0c1.5,0,2.1,0.3,2.7,2.1l6.6,19.3c0.6,1.8,1.5,3.5,4.4,3.5l16.7,0l-33.6-91.3
	c-2.5-6.9-7.5-10.5-14.7-10.5h0c-7.1,0-12,3.6-14.6,10.7L412.6,351.7z"/>
</svg>
