<?xml version="1.0" encoding="utf-8"?>
<!-- Generator: Adobe Illustrator 21.1.0, SVG Export Plug-In . SVG Version: 6.00 Build 0)  -->
<svg version="1.1" xmlns="http://www.w3.org/2000/svg" xmlns:xlink="http://www.w3.org/1999/xlink" x="0px" y="0px"
	 viewBox="0 0 1024 475" style="enable-background:new 0 0 1024 475;" xml:space="preserve">
<style type="text/css">
	.st0{fill:#FFFFFF;}
	.st1{fill:#FFFFFF;stroke:#FFFFFF;stroke-width:0.8445;stroke-miterlimit:10;}
</style>
<g id="Layer_2">
</g>
<g id="Layer_1">
	<g>
		<path class="st0" d="M705.5,108.4c-5.5-9.7-16.2-13.5-27.2-9.7c-8.3,2.9-11.7,9.3-11.7,22.3l0,113.2h24.7l0.5-99.5
			c0.1,0.1,0.1,0.2,0.2,0.3l48.9,87.5c4.5,8.1,11.6,12.6,19.5,12.6c2.5,0,5-0.4,7.5-1.3c9.1-3.2,12.2-9.1,12.2-23.5l0-112.1H755
			v99.4L705.5,108.4z"/>
		<path class="st0" d="M655.3,97.1l0,23.4h-62.1c-6.6,0-8.2,1-8.2,9.5l0,22.4h59.2l0,23.7l-58.5,0l0.1,31.2c0.1,2.5,1.1,3,4.7,3
			l65.5,0.1l0,23.6l-76.3,0c-14.1,0-20.1-6.5-20.1-22.4l0-90.1c0-17.6,5.6-24.1,21-24.3L655.3,97.1z"/>
		<path class="st0" d="M767.2,259l0,18.2h-47.9c-5.1,0-6.3,0.8-6.3,7.4l0,17.4h45.7l0,18.5l-45.1,0l0.1,24.3c0,1.9,0.8,2.3,3.6,2.3
			l50.5,0.1l0,18.4l-58.8,0c-10.8,0-15.5-5-15.5-17.5l0-70.2c0-13.7,4.3-18.8,16.2-18.9L767.2,259z"/>
		<path class="st0" d="M548.5,97.3v23.2l-51.2,0.2c-4.8,0.1-10.3,0.7-13.7,1.9c-12,4.2-16.9,11-18.3,27.7c-1,11.7-0.7,24,0.9,36.7
			c1.8,14.4,9.9,22.1,24.2,23l27.9,0.3c1.7,0,2.9-0.3,3.6-1.1c0.9-0.9,1.4-2.6,1.3-5l0-38.7h25.1l-0.2,54.1
			c-0.3,8.2-7.1,14.4-16,14.4l-52.4-0.2c-17.2-1.7-32.6-14.5-37.5-34.2c-5.4-21.8-5.5-44.2-0.2-66.6c4.1-17.4,19.2-31,36.6-34.1
			c6-1.1,12.5-1.6,18.6-1.5L548.5,97.3z"/>
		<path class="st0" d="M890.5,233.9v-23.7l-47.6-0.1c-14.9-0.3-23.4-7.9-25.4-22.7c-1.5-11.7-1.8-24.4-0.9-37.8
			c1.2-18,9.3-28,24.9-29.1h46.2l-13.3-23.4l-42.3,0c-19.5,0.7-34.5,15.3-39.4,37.1c-4.5,20.4-4.6,41.5-0.1,62.7
			c3.7,17.5,13.1,29,28.1,34.1c5.1,1.8,10.8,2.7,17,2.9L890.5,233.9z"/>
		<path class="st0" d="M849.6,365.6v-18.5l-36.7-0.1c-11.5-0.3-18.1-6.2-19.5-17.6c-1.2-9.1-1.4-19-0.7-29.5
			c1-14,7.1-21.8,19.2-22.7h29l6.2-18.2l-42.5,0c-15,0.5-26.6,11.9-30.4,28.9c-3.5,15.9-3.5,32.3-0.1,48.9
			c2.9,13.6,10.1,22.6,21.6,26.6c3.9,1.4,8.3,2.1,13.1,2.2L849.6,365.6z"/>
		<path class="st0" d="M964.7,234.1l1.2-37.3c1.5-9.7,4.8-16.5,10.7-26.6l38.7-72.9l-24.9,0c-1.6,0.1-3.3,1.6-5,4.8l-33,62.9l0,0
			l-33-62.9c-1.6-3.1-3.3-4.7-5-4.8l-24.9,0l38.7,72.9c6,10.1,9.2,16.9,10.7,26.6l1.2,37.4L964.7,234.1z"/>
		<path class="st0" d="M404.1,364.6l16.9,0c1.7-0.1,3.5-2.2,4-3.5l13.6-39.3h0c1.2-3.7,2.5-7.3,3.8-11c3.5-10.1,7-20.2,10.6-30.3
			l0.6-1.6l0.6,1.6l14.6,41.3h-15.5l-5.6,16.6c5.8,0,18.3,0.2,24.6,0.1c1.6,0,2.2,0.3,2.8,2.2l6.9,20.2c0.6,1.9,1.6,3.7,4.6,3.7
			l17.5,0L468.9,269c-2.6-7.3-7.8-11-15.4-11h0c-7.4,0-12.6,3.8-15.3,11.2L404.1,364.6z"/>
		<path class="st0" d="M314.4,232.6l21.6,0c2.1-0.1,4.5-2.8,5.1-4.5l17.3-50.1h0c1.6-4.7,3.2-9.3,4.9-14c4.5-12.9,9-25.8,13.5-38.7
			l0.7-2.1l0.8,2l18.6,52.7h-19.8l-7.2,21.1c7.4,0,23.4,0.2,31.4,0.1c2,0,2.8,0.4,3.6,2.8l8.8,25.8c0.7,2.4,2,4.7,5.9,4.7l22.3,0
			l-44.9-122.2c-3.4-9.3-10-14-19.7-14h0c-9.5,0-16.1,4.8-19.5,14.3L314.4,232.6z"/>
		<path class="st0" d="M510.1,348.9h48.6c8.8,0,9.2-7.8,9.2-11.3c0-4-1-8.9-9.5-11.8l-38.6-13c-12.9-4.3-16.6-13.1-16.6-27.4
			c0-14.9,6.9-25.2,22.4-25.2h56.3v15.7h-51.4c-4.6,0-8.2,3-8.2,10.4c0,4.6,0.7,9.1,8.5,11.8l35.8,12.1
			c14.3,4.8,20.4,11.2,20.4,27.6c0,15.4-5.9,26.8-21,26.8h-50.5L510.1,348.9z"/>
		<path class="st0" d="M596.4,275.9c0-12,5.9-15.8,14.4-15.8h49.1c21.1,0,25.1,15.8,25.1,33.8c0,18-3.9,34.1-25.1,34.1H615l0,36.4
			h-18.6L596.4,275.9z M650.7,312.3c12.7,0,15.1-6.3,15.1-18.3c0-12-2.4-18-15.1-18h-28.6c-5.6,0-7,1.5-7,7.5v28.9H650.7z"/>
		<path class="st1" d="M852,275.6h29.4l0,89h18.6l0-89l30.1,0v-15.8l-72.9,0L852,275.6z"/>
		<circle class="st0" cx="175.7" cy="104.5" r="6.3"/>
		<circle class="st0" cx="276.3" cy="345.4" r="6.3"/>
		<circle class="st0" cx="75.2" cy="345.4" r="6.3"/>
		<circle class="st0" cx="175.7" cy="417.5" r="6.3"/>
		<circle class="st0" cx="276.3" cy="378.9" r="6.3"/>
		<circle class="st0" cx="75.2" cy="378.9" r="6.3"/>
		<g>
			<g>
				<polygon class="st0" points="248,260.5 166.3,260.5 176.8,235.4 237.5,235.4 182,103.4 169.5,103.4 69.9,342 75.2,351.7 
					276.2,351.7 282.5,343.3 				"/>
			</g>
		</g>
		<polygon class="st0" points="75.2,372.6 73.1,385 172.5,422.9 178.9,422.9 278.3,384.6 276.3,372.6 		"/>
		<g>
			<g>
				<path class="st0" d="M344.8,380.3l-50.3-120.8h-22.7l53.6,128.8l-148.7,60.7L25.9,390.4L174.7,25.9l87,209l22.6-0.1L194,17.9
					C190.7,10.1,183.1,5,174.7,5c0,0,0,0-0.1,0c-8.5,0-16.1,5.2-19.3,13L6.6,382.5c-2.1,5.2-2.1,11,0.2,16.2
					c2.2,5.2,6.4,9.2,11.6,11.2l150.8,58.6c2.4,0.9,5,1.4,7.6,1.4c2.7,0,5.4-0.5,7.9-1.6l148.7-60.7c5.2-2.1,9.3-6.2,11.4-11.3
					C347,391.2,347,385.4,344.8,380.3z"/>
			</g>
		</g>
	</g>
</g>
</svg>
